<?xml version="1.0" encoding="UTF-8" standalone="no"?>
<svg
   width="6.3499994mm"
   height="6.3500009mm"
   viewBox="0 0 22.499998 22.500003"
   id="svg2"
   version="1.1"
   sodipodi:docname="icon.svg"
   inkscape:version="1.4.3 (0d15f750, 2025-12-25)"
   xmlns:inkscape="http://www.inkscape.org/namespaces/inkscape"
   xmlns:sodipodi="http://sodipodi.sourceforge.net/DTD/sodipodi-0.dtd"
   xmlns="http://www.w3.org/2000/svg"
   xmlns:svg="http://www.w3.org/2000/svg"
   xmlns:rdf="http://www.w3.org/1999/02/22-rdf-syntax-ns#"
   xmlns:cc="http://creativecommons.org/ns#"
   xmlns:dc="http://purl.org/dc/elements/1.1/">
  <sodipodi:namedview
     id="namedview1"
     pagecolor="#ffffff"
     bordercolor="#666666"
     borderopacity="1.0"
     inkscape:showpageshadow="2"
     inkscape:pageopacity="0.0"
     inkscape:pagecheckerboard="0"
     inkscape:deskcolor="#d1d1d1"
     inkscape:document-units="mm"
     inkscape:zoom="4.7220402"
     inkscape:cx="50.931375"
     inkscape:cy="19.694877"
     inkscape:window-width="1138"
     inkscape:window-height="525"
     inkscape:window-x="0"
     inkscape:window-y="40"
     inkscape:window-maximized="0"
     inkscape:current-layer="layer1" />
  <defs
     id="defs4" />
  <metadata
     id="metadata7">
    <rdf:RDF>
      <cc:Work
         rdf:about="">
        <dc:format>image/svg+xml</dc:format>
        <dc:type
           rdf:resource="http://purl.org/dc/dcmitype/StillImage" />
        <dc:title />
      </cc:Work>
    </rdf:RDF>
  </metadata>
  <g
     id="layer1"
     transform="translate(-993.7776,-200.90563)">
    <rect
       style="fill:#ffffff;fill-opacity:1;stroke:#000000;stroke-width:3.7;stroke-miterlimit:4;stroke-dasharray:none;stroke-opacity:1"
       id="rect4796"
       width="4688.2354"
       height="3300"
       x="-1909.9567"
       y="-745.6889" />
    <rect
       style="fill:#0076c0;fill-opacity:1;stroke-width:1.8652"
       id="rect1"
       width="22.5"
       height="22.5"
       x="993.77753"
       y="200.90562" />
    <path
       style="font-weight:600;font-size:25.1375px;line-height:1.25;font-family:'\'Arial', 'system-ui\'';-inkscape-font-specification:'Arial, system-ui';fill:#ffffff;stroke-width:0.884661"
       d="m 1013.8228,215.96434 q 0,2.50281 -1.7667,4.07274 -1.7572,1.55858 -4.7804,1.55858 -1.7478,0 -3.0515,-0.36405 -1.2943,-0.37542 -2.4281,-0.94424 V 216.226 h 0.3968 q 1.1243,1.08075 2.5131,1.66095 1.3983,0.5802 2.6831,0.5802 0.3307,0 0.8691,-0.0682 0.5386,-0.0682 0.8787,-0.22753 0.4157,-0.20477 0.6802,-0.51195 0.2739,-0.30715 0.2739,-0.9101 0,-0.55745 -0.3967,-0.95562 -0.3873,-0.40955 -1.1432,-0.6257 -0.7936,-0.22752 -1.6817,-0.42094 -0.8785,-0.20477 -1.6532,-0.51192 -1.7761,-0.69397 -2.5603,-1.87711 -0.7748,-1.19453 -0.7748,-2.95787 0,-2.36629 1.7573,-3.85661 1.7667,-1.50168 4.5348,-1.50168 1.3888,0 2.7398,0.32991 1.3605,0.31855 2.3524,0.80774 v 3.9021 h -0.3874 q -0.8502,-0.8191 -2.0879,-1.36517 -1.2281,-0.55744 -2.5129,-0.55744 -0.4535,0 -0.907,0.0796 -0.444,0.0683 -0.8597,0.27304 -0.3685,0.17066 -0.633,0.52331 -0.2645,0.3413 -0.2645,0.78498 0,0.67121 0.4251,1.03526 0.4252,0.35266 1.6061,0.64845 0.7747,0.19339 1.4833,0.37542 0.7179,0.18202 1.5399,0.50056 1.6154,0.63708 2.3808,1.74059 0.7746,1.09214 0.7746,2.8441 z"
       id="text1"
       aria-label="S" />
  </g>
</svg>
